<svg xmlns:xlink="http://www.w3.org/1999/xlink" width="79.635ex" height="9.509ex" style="font-size: 15px; vertical-align: -4.171ex;" viewBox="0 -2298.3 34287 4094.3" role="img" focusable="false" xmlns="http://www.w3.org/2000/svg">
<defs>
<path stroke-width="1" id="E1-MJMATHI-4D" d="M289 629Q289 635 232 637Q208 637 201 638T194 648Q194 649 196 659Q197 662 198 666T199 671T201 676T203 679T207 681T212 683T220 683T232 684Q238 684 262 684T307 683Q386 683 398 683T414 678Q415 674 451 396L487 117L510 154Q534 190 574 254T662 394Q837 673 839 675Q840 676 842 678T846 681L852 683H948Q965 683 988 683T1017 684Q1051 684 1051 673Q1051 668 1048 656T1045 643Q1041 637 1008 637Q968 636 957 634T939 623Q936 618 867 340T797 59Q797 55 798 54T805 50T822 48T855 46H886Q892 37 892 35Q892 19 885 5Q880 0 869 0Q864 0 828 1T736 2Q675 2 644 2T609 1Q592 1 592 11Q592 13 594 25Q598 41 602 43T625 46Q652 46 685 49Q699 52 704 61Q706 65 742 207T813 490T848 631L654 322Q458 10 453 5Q451 4 449 3Q444 0 433 0Q418 0 415 7Q413 11 374 317L335 624L267 354Q200 88 200 79Q206 46 272 46H282Q288 41 289 37T286 19Q282 3 278 1Q274 0 267 0Q265 0 255 0T221 1T157 2Q127 2 95 1T58 0Q43 0 39 2T35 11Q35 13 38 25T43 40Q45 46 65 46Q135 46 154 86Q158 92 223 354T289 629Z"></path>
<path stroke-width="1" id="E1-MJMAIN-3D" d="M56 347Q56 360 70 367H707Q722 359 722 347Q722 336 708 328L390 327H72Q56 332 56 347ZM56 153Q56 168 72 173H708Q722 163 722 153Q722 140 707 133H70Q56 140 56 153Z"></path>
<path stroke-width="1" id="E1-MJMAIN-28" d="M94 250Q94 319 104 381T127 488T164 576T202 643T244 695T277 729T302 750H315H319Q333 750 333 741Q333 738 316 720T275 667T226 581T184 443T167 250T184 58T225 -81T274 -167T316 -220T333 -241Q333 -250 318 -250H315H302L274 -226Q180 -141 137 -14T94 250Z"></path>
<path stroke-width="1" id="E1-MJMATHI-63" d="M34 159Q34 268 120 355T306 442Q362 442 394 418T427 355Q427 326 408 306T360 285Q341 285 330 295T319 325T330 359T352 380T366 386H367Q367 388 361 392T340 400T306 404Q276 404 249 390Q228 381 206 359Q162 315 142 235T121 119Q121 73 147 50Q169 26 205 26H209Q321 26 394 111Q403 121 406 121Q410 121 419 112T429 98T420 83T391 55T346 25T282 0T202 -11Q127 -11 81 37T34 159Z"></path>
<path stroke-width="1" id="E1-MJMATHI-6F" d="M201 -11Q126 -11 80 38T34 156Q34 221 64 279T146 380Q222 441 301 441Q333 441 341 440Q354 437 367 433T402 417T438 387T464 338T476 268Q476 161 390 75T201 -11ZM121 120Q121 70 147 48T206 26Q250 26 289 58T351 142Q360 163 374 216T388 308Q388 352 370 375Q346 405 306 405Q243 405 195 347Q158 303 140 230T121 120Z"></path>
<path stroke-width="1" id="E1-MJMATHI-73" d="M131 289Q131 321 147 354T203 415T300 442Q362 442 390 415T419 355Q419 323 402 308T364 292Q351 292 340 300T328 326Q328 342 337 354T354 372T367 378Q368 378 368 379Q368 382 361 388T336 399T297 405Q249 405 227 379T204 326Q204 301 223 291T278 274T330 259Q396 230 396 163Q396 135 385 107T352 51T289 7T195 -10Q118 -10 86 19T53 87Q53 126 74 143T118 160Q133 160 146 151T160 120Q160 94 142 76T111 58Q109 57 108 57T107 55Q108 52 115 47T146 34T201 27Q237 27 263 38T301 66T318 97T323 122Q323 150 302 164T254 181T195 196T148 231Q131 256 131 289Z"></path>
<path stroke-width="1" id="E1-MJMATHI-3B1" d="M34 156Q34 270 120 356T309 442Q379 442 421 402T478 304Q484 275 485 237V208Q534 282 560 374Q564 388 566 390T582 393Q603 393 603 385Q603 376 594 346T558 261T497 161L486 147L487 123Q489 67 495 47T514 26Q528 28 540 37T557 60Q559 67 562 68T577 70Q597 70 597 62Q597 56 591 43Q579 19 556 5T512 -10H505Q438 -10 414 62L411 69L400 61Q390 53 370 41T325 18T267 -2T203 -11Q124 -11 79 39T34 156ZM208 26Q257 26 306 47T379 90L403 112Q401 255 396 290Q382 405 304 405Q235 405 183 332Q156 292 139 224T121 120Q121 71 146 49T208 26Z"></path>
<path stroke-width="1" id="E1-MJMATHI-3B3" d="M31 249Q11 249 11 258Q11 275 26 304T66 365T129 418T206 441Q233 441 239 440Q287 429 318 386T371 255Q385 195 385 170Q385 166 386 166L398 193Q418 244 443 300T486 391T508 430Q510 431 524 431H537Q543 425 543 422Q543 418 522 378T463 251T391 71Q385 55 378 6T357 -100Q341 -165 330 -190T303 -216Q286 -216 286 -188Q286 -138 340 32L346 51L347 69Q348 79 348 100Q348 257 291 317Q251 355 196 355Q148 355 108 329T51 260Q49 251 47 251Q45 249 31 249Z"></path>
<path stroke-width="1" id="E1-MJMAIN-2212" d="M84 237T84 250T98 270H679Q694 262 694 250T679 230H98Q84 237 84 250Z"></path>
<path stroke-width="1" id="E1-MJMATHI-69" d="M184 600Q184 624 203 642T247 661Q265 661 277 649T290 619Q290 596 270 577T226 557Q211 557 198 567T184 600ZM21 287Q21 295 30 318T54 369T98 420T158 442Q197 442 223 419T250 357Q250 340 236 301T196 196T154 83Q149 61 149 51Q149 26 166 26Q175 26 185 29T208 43T235 78T260 137Q263 149 265 151T282 153Q302 153 302 143Q302 135 293 112T268 61T223 11T161 -11Q129 -11 102 10T74 74Q74 91 79 106T122 220Q160 321 166 341T173 380Q173 404 156 404H154Q124 404 99 371T61 287Q60 286 59 284T58 281T56 279T53 278T49 278T41 278H27Q21 284 21 287Z"></path>
<path stroke-width="1" id="E1-MJMATHI-6E" d="M21 287Q22 293 24 303T36 341T56 388T89 425T135 442Q171 442 195 424T225 390T231 369Q231 367 232 367L243 378Q304 442 382 442Q436 442 469 415T503 336T465 179T427 52Q427 26 444 26Q450 26 453 27Q482 32 505 65T540 145Q542 153 560 153Q580 153 580 145Q580 144 576 130Q568 101 554 73T508 17T439 -10Q392 -10 371 17T350 73Q350 92 386 193T423 345Q423 404 379 404H374Q288 404 229 303L222 291L189 157Q156 26 151 16Q138 -11 108 -11Q95 -11 87 -5T76 7T74 17Q74 30 112 180T152 343Q153 348 153 366Q153 405 129 405Q91 405 66 305Q60 285 60 284Q58 278 41 278H27Q21 284 21 287Z"></path>
<path stroke-width="1" id="E1-MJMATHI-3B2" d="M29 -194Q23 -188 23 -186Q23 -183 102 134T186 465Q208 533 243 584T309 658Q365 705 429 705H431Q493 705 533 667T573 570Q573 465 469 396L482 383Q533 332 533 252Q533 139 448 65T257 -10Q227 -10 203 -2T165 17T143 40T131 59T126 65L62 -188Q60 -194 42 -194H29ZM353 431Q392 431 427 419L432 422Q436 426 439 429T449 439T461 453T472 471T484 495T493 524T501 560Q503 569 503 593Q503 611 502 616Q487 667 426 667Q384 667 347 643T286 582T247 514T224 455Q219 439 186 308T152 168Q151 163 151 147Q151 99 173 68Q204 26 260 26Q302 26 349 51T425 137Q441 171 449 214T457 279Q457 337 422 372Q380 358 347 358H337Q258 358 258 389Q258 396 261 403Q275 431 353 431Z"></path>
<path stroke-width="1" id="E1-MJMAIN-2B" d="M56 237T56 250T70 270H369V420L370 570Q380 583 389 583Q402 583 409 568V270H707Q722 262 722 250T707 230H409V-68Q401 -82 391 -82H389H387Q375 -82 369 -68V230H70Q56 237 56 250Z"></path>
<path stroke-width="1" id="E1-MJMAIN-29" d="M60 749L64 750Q69 750 74 750H86L114 726Q208 641 251 514T294 250Q294 182 284 119T261 12T224 -76T186 -143T145 -194T113 -227T90 -246Q87 -249 86 -250H74Q66 -250 63 -250T58 -247T55 -238Q56 -237 66 -225Q221 -64 221 250T66 725Q56 737 55 738Q55 746 60 749Z"></path>
<path stroke-width="1" id="E1-MJSZ4-239B" d="M837 1154Q843 1148 843 1145Q843 1141 818 1106T753 1002T667 841T574 604T494 299Q417 -84 417 -609Q417 -641 416 -647T411 -654Q409 -655 366 -655Q299 -655 297 -654Q292 -652 292 -643T291 -583Q293 -400 304 -242T347 110T432 470T574 813T785 1136Q787 1139 790 1142T794 1147T796 1150T799 1152T802 1153T807 1154T813 1154H819H837Z"></path>
<path stroke-width="1" id="E1-MJSZ4-239D" d="M843 -635Q843 -638 837 -644H820Q801 -644 800 -643Q792 -635 785 -626Q684 -503 605 -363T473 -75T385 216T330 518T302 809T291 1093Q291 1144 291 1153T296 1164Q298 1165 366 1165Q409 1165 411 1164Q415 1163 416 1157T417 1119Q417 529 517 109T833 -617Q843 -631 843 -635Z"></path>
<path stroke-width="1" id="E1-MJSZ4-239C" d="M413 -9Q412 -9 407 -9T388 -10T354 -10Q300 -10 297 -9Q294 -8 293 -5Q291 5 291 127V300Q291 602 292 605L296 609Q298 610 366 610Q382 610 392 610T407 610T412 609Q416 609 416 592T417 473V127Q417 -9 413 -9Z"></path>
<path stroke-width="1" id="E1-MJSZ4-239E" d="M31 1143Q31 1154 49 1154H59Q72 1154 75 1152T89 1136Q190 1013 269 873T401 585T489 294T544 -8T572 -299T583 -583Q583 -634 583 -643T577 -654Q575 -655 508 -655Q465 -655 463 -654Q459 -653 458 -647T457 -609Q457 -58 371 340T100 1037Q87 1059 61 1098T31 1143Z"></path>
<path stroke-width="1" id="E1-MJSZ4-23A0" d="M56 -644H50Q31 -644 31 -635Q31 -632 37 -622Q69 -579 100 -527Q286 -228 371 170T457 1119Q457 1161 462 1164Q464 1165 520 1165Q575 1165 577 1164Q582 1162 582 1153T583 1093Q581 910 570 752T527 400T442 40T300 -303T89 -626Q78 -640 75 -642T61 -644H56Z"></path>
<path stroke-width="1" id="E1-MJSZ4-239F" d="M579 -9Q578 -9 573 -9T554 -10T520 -10Q466 -10 463 -9Q460 -8 459 -5Q457 5 457 127V300Q457 602 458 605L462 609Q464 610 532 610Q548 610 558 610T573 610T578 609Q582 609 582 592T583 473V127Q583 -9 579 -9Z"></path>
</defs>
<g stroke="currentColor" fill="currentColor" stroke-width="0" transform="matrix(1 0 0 -1 0 0)">
 <use xlink:href="#E1-MJMATHI-4D" x="0" y="0"></use>
 <use xlink:href="#E1-MJMAIN-3D" x="1329" y="0"></use>
<g transform="translate(2385,0)">
<g transform="translate(0,2167)">
 <use xlink:href="#E1-MJSZ4-239B" x="0" y="-1156"></use>
<g transform="translate(0,-2067.0096308186194) scale(1,0.49919743178170145)">
 <use xlink:href="#E1-MJSZ4-239C"></use>
</g>
 <use xlink:href="#E1-MJSZ4-239D" x="0" y="-3189"></use>
</g>
<g transform="translate(1042,0)">
<g transform="translate(-11,0)">
<g transform="translate(389,1367)">
 <use xlink:href="#E1-MJMATHI-63" x="0" y="0"></use>
 <use xlink:href="#E1-MJMATHI-6F" x="433" y="0"></use>
 <use xlink:href="#E1-MJMATHI-73" x="919" y="0"></use>
 <use xlink:href="#E1-MJMATHI-3B1" x="1388" y="0"></use>
 <use xlink:href="#E1-MJMATHI-63" x="2029" y="0"></use>
 <use xlink:href="#E1-MJMATHI-6F" x="2462" y="0"></use>
 <use xlink:href="#E1-MJMATHI-73" x="2948" y="0"></use>
 <use xlink:href="#E1-MJMATHI-3B3" x="3417" y="0"></use>
 <use xlink:href="#E1-MJMAIN-2212" x="4183" y="0"></use>
 <use xlink:href="#E1-MJMATHI-73" x="5183" y="0"></use>
 <use xlink:href="#E1-MJMATHI-69" x="5653" y="0"></use>
 <use xlink:href="#E1-MJMATHI-6E" x="5998" y="0"></use>
 <use xlink:href="#E1-MJMATHI-3B1" x="6599" y="0"></use>
 <use xlink:href="#E1-MJMATHI-63" x="7239" y="0"></use>
 <use xlink:href="#E1-MJMATHI-6F" x="7673" y="0"></use>
 <use xlink:href="#E1-MJMATHI-73" x="8158" y="0"></use>
 <use xlink:href="#E1-MJMATHI-3B2" x="8628" y="0"></use>
 <use xlink:href="#E1-MJMATHI-73" x="9201" y="0"></use>
 <use xlink:href="#E1-MJMATHI-69" x="9671" y="0"></use>
 <use xlink:href="#E1-MJMATHI-6E" x="10016" y="0"></use>
 <use xlink:href="#E1-MJMATHI-3B3" x="10617" y="0"></use>
</g>
<g transform="translate(0,-50)">
 <use xlink:href="#E1-MJMAIN-2212" x="0" y="0"></use>
 <use xlink:href="#E1-MJMATHI-63" x="778" y="0"></use>
 <use xlink:href="#E1-MJMATHI-6F" x="1212" y="0"></use>
 <use xlink:href="#E1-MJMATHI-73" x="1697" y="0"></use>
 <use xlink:href="#E1-MJMATHI-3B1" x="2167" y="0"></use>
 <use xlink:href="#E1-MJMATHI-73" x="2807" y="0"></use>
 <use xlink:href="#E1-MJMATHI-69" x="3277" y="0"></use>
 <use xlink:href="#E1-MJMATHI-6E" x="3622" y="0"></use>
 <use xlink:href="#E1-MJMATHI-3B3" x="4223" y="0"></use>
 <use xlink:href="#E1-MJMAIN-2212" x="4988" y="0"></use>
 <use xlink:href="#E1-MJMATHI-73" x="5989" y="0"></use>
 <use xlink:href="#E1-MJMATHI-69" x="6458" y="0"></use>
 <use xlink:href="#E1-MJMATHI-6E" x="6804" y="0"></use>
 <use xlink:href="#E1-MJMATHI-3B1" x="7404" y="0"></use>
 <use xlink:href="#E1-MJMATHI-63" x="8045" y="0"></use>
 <use xlink:href="#E1-MJMATHI-6F" x="8478" y="0"></use>
 <use xlink:href="#E1-MJMATHI-73" x="8964" y="0"></use>
 <use xlink:href="#E1-MJMATHI-3B2" x="9433" y="0"></use>
 <use xlink:href="#E1-MJMATHI-63" x="10007" y="0"></use>
 <use xlink:href="#E1-MJMATHI-6F" x="10440" y="0"></use>
 <use xlink:href="#E1-MJMATHI-73" x="10926" y="0"></use>
 <use xlink:href="#E1-MJMATHI-3B3" x="11395" y="0"></use>
</g>
<g transform="translate(3947,-1467)">
 <use xlink:href="#E1-MJMATHI-73" x="0" y="0"></use>
 <use xlink:href="#E1-MJMATHI-69" x="469" y="0"></use>
 <use xlink:href="#E1-MJMATHI-6E" x="815" y="0"></use>
 <use xlink:href="#E1-MJMATHI-3B1" x="1415" y="0"></use>
 <use xlink:href="#E1-MJMATHI-73" x="2056" y="0"></use>
 <use xlink:href="#E1-MJMATHI-69" x="2525" y="0"></use>
 <use xlink:href="#E1-MJMATHI-6E" x="2871" y="0"></use>
 <use xlink:href="#E1-MJMATHI-3B2" x="3471" y="0"></use>
</g>
</g>
<g transform="translate(12928,0)">
<g transform="translate(389,1367)">
 <use xlink:href="#E1-MJMATHI-73" x="0" y="0"></use>
 <use xlink:href="#E1-MJMATHI-69" x="469" y="0"></use>
 <use xlink:href="#E1-MJMATHI-6E" x="815" y="0"></use>
 <use xlink:href="#E1-MJMATHI-3B1" x="1415" y="0"></use>
 <use xlink:href="#E1-MJMATHI-63" x="2056" y="0"></use>
 <use xlink:href="#E1-MJMATHI-6F" x="2489" y="0"></use>
 <use xlink:href="#E1-MJMATHI-73" x="2975" y="0"></use>
 <use xlink:href="#E1-MJMATHI-3B3" x="3444" y="0"></use>
 <use xlink:href="#E1-MJMAIN-2B" x="4210" y="0"></use>
 <use xlink:href="#E1-MJMATHI-63" x="5210" y="0"></use>
 <use xlink:href="#E1-MJMATHI-6F" x="5644" y="0"></use>
 <use xlink:href="#E1-MJMATHI-73" x="6129" y="0"></use>
 <use xlink:href="#E1-MJMATHI-3B1" x="6599" y="0"></use>
 <use xlink:href="#E1-MJMATHI-63" x="7239" y="0"></use>
 <use xlink:href="#E1-MJMATHI-6F" x="7673" y="0"></use>
 <use xlink:href="#E1-MJMATHI-73" x="8158" y="0"></use>
 <use xlink:href="#E1-MJMATHI-3B2" x="8628" y="0"></use>
 <use xlink:href="#E1-MJMATHI-73" x="9201" y="0"></use>
 <use xlink:href="#E1-MJMATHI-69" x="9671" y="0"></use>
 <use xlink:href="#E1-MJMATHI-6E" x="10016" y="0"></use>
 <use xlink:href="#E1-MJMATHI-3B3" x="10617" y="0"></use>
</g>
<g transform="translate(0,-50)">
 <use xlink:href="#E1-MJMAIN-2212" x="0" y="0"></use>
 <use xlink:href="#E1-MJMATHI-73" x="778" y="0"></use>
 <use xlink:href="#E1-MJMATHI-69" x="1248" y="0"></use>
 <use xlink:href="#E1-MJMATHI-6E" x="1593" y="0"></use>
 <use xlink:href="#E1-MJMATHI-3B1" x="2194" y="0"></use>
 <use xlink:href="#E1-MJMATHI-73" x="2834" y="0"></use>
 <use xlink:href="#E1-MJMATHI-69" x="3304" y="0"></use>
 <use xlink:href="#E1-MJMATHI-6E" x="3649" y="0"></use>
 <use xlink:href="#E1-MJMATHI-3B3" x="4250" y="0"></use>
 <use xlink:href="#E1-MJMAIN-2B" x="5015" y="0"></use>
 <use xlink:href="#E1-MJMATHI-63" x="6016" y="0"></use>
 <use xlink:href="#E1-MJMATHI-6F" x="6449" y="0"></use>
 <use xlink:href="#E1-MJMATHI-73" x="6935" y="0"></use>
 <use xlink:href="#E1-MJMATHI-3B1" x="7404" y="0"></use>
 <use xlink:href="#E1-MJMATHI-63" x="8045" y="0"></use>
 <use xlink:href="#E1-MJMATHI-6F" x="8478" y="0"></use>
 <use xlink:href="#E1-MJMATHI-73" x="8964" y="0"></use>
 <use xlink:href="#E1-MJMATHI-3B2" x="9433" y="0"></use>
 <use xlink:href="#E1-MJMATHI-63" x="10007" y="0"></use>
 <use xlink:href="#E1-MJMATHI-6F" x="10440" y="0"></use>
 <use xlink:href="#E1-MJMATHI-73" x="10926" y="0"></use>
 <use xlink:href="#E1-MJMATHI-3B3" x="11395" y="0"></use>
</g>
<g transform="translate(3571,-1467)">
 <use xlink:href="#E1-MJMAIN-2212" x="0" y="0"></use>
 <use xlink:href="#E1-MJMATHI-63" x="778" y="0"></use>
 <use xlink:href="#E1-MJMATHI-6F" x="1212" y="0"></use>
 <use xlink:href="#E1-MJMATHI-73" x="1697" y="0"></use>
 <use xlink:href="#E1-MJMATHI-3B1" x="2167" y="0"></use>
 <use xlink:href="#E1-MJMATHI-73" x="2807" y="0"></use>
 <use xlink:href="#E1-MJMATHI-69" x="3277" y="0"></use>
 <use xlink:href="#E1-MJMATHI-6E" x="3622" y="0"></use>
 <use xlink:href="#E1-MJMATHI-3B2" x="4223" y="0"></use>
</g>
</g>
<g transform="translate(25868,0)">
<g transform="translate(0,1367)">
 <use xlink:href="#E1-MJMATHI-73" x="0" y="0"></use>
 <use xlink:href="#E1-MJMATHI-69" x="469" y="0"></use>
 <use xlink:href="#E1-MJMATHI-6E" x="815" y="0"></use>
 <use xlink:href="#E1-MJMATHI-3B2" x="1415" y="0"></use>
 <use xlink:href="#E1-MJMATHI-73" x="1989" y="0"></use>
 <use xlink:href="#E1-MJMATHI-69" x="2458" y="0"></use>
 <use xlink:href="#E1-MJMATHI-6E" x="2804" y="0"></use>
 <use xlink:href="#E1-MJMATHI-3B3" x="3404" y="0"></use>
</g>
<g transform="translate(13,-50)">
 <use xlink:href="#E1-MJMATHI-73" x="0" y="0"></use>
 <use xlink:href="#E1-MJMATHI-69" x="469" y="0"></use>
 <use xlink:href="#E1-MJMATHI-6E" x="815" y="0"></use>
 <use xlink:href="#E1-MJMATHI-3B2" x="1415" y="0"></use>
 <use xlink:href="#E1-MJMATHI-63" x="1989" y="0"></use>
 <use xlink:href="#E1-MJMATHI-6F" x="2422" y="0"></use>
 <use xlink:href="#E1-MJMATHI-73" x="2908" y="0"></use>
 <use xlink:href="#E1-MJMATHI-3B3" x="3377" y="0"></use>
</g>
<g transform="translate(993,-1467)">
 <use xlink:href="#E1-MJMATHI-63" x="0" y="0"></use>
 <use xlink:href="#E1-MJMATHI-6F" x="433" y="0"></use>
 <use xlink:href="#E1-MJMATHI-73" x="919" y="0"></use>
 <use xlink:href="#E1-MJMATHI-3B2" x="1388" y="0"></use>
</g>
</g>
</g>
<g transform="translate(31025,2167)">
 <use xlink:href="#E1-MJSZ4-239E" x="0" y="-1155"></use>
<g transform="translate(0,-2066.9903691813806) scale(1,0.5008025682182986)">
 <use xlink:href="#E1-MJSZ4-239F"></use>
</g>
 <use xlink:href="#E1-MJSZ4-23A0" x="0" y="-3189"></use>
</g>
</g>
</g>
</svg>